<?xml version="1.0" encoding="utf-8"?>
<!-- Generator: Adobe Illustrator 21.0.0, SVG Export Plug-In . SVG Version: 6.00 Build 0)  -->
<svg version="1.1" id="Слой_1" xmlns="http://www.w3.org/2000/svg" xmlns:xlink="http://www.w3.org/1999/xlink" x="0px" y="0px"
	 viewBox="0 0 76.6 77.1" style="enable-background:new 0 0 76.6 77.1;" xml:space="preserve">
<style type="text/css">
	.st0{fill:black;}
</style>
<g>
	<polygon class="st0" points="41.4,21.5 71.4,35.8 76.6,24.2 57.8,15.2 	"/>
	<polygon class="st0" points="17.3,64.6 21.6,76.6 40.4,69.3 48.4,52.6 	"/>
	<polygon class="st0" points="41.1,72 52.7,77.1 61.7,58.3 55.4,41.9 	"/>
	<polygon class="st0" points="35,56 5.1,41.6 0,53.2 18.9,62.3 	"/>
	<polygon class="st0" points="24.3,48.9 12.2,17.5 0.2,21.8 7.5,40.9 	"/>
	<polygon class="st0" points="35.3,5.2 23.7,0 14.7,19.1 21,35.7 	"/>
	<polygon class="st0" points="59.6,12.7 55.2,0.7 35.9,8.1 28.1,24.7 	"/>
	<polygon class="st0" points="52.2,28.6 64.1,60 76.1,55.7 68.8,36.4 	"/>
</g>
</svg>
